<svg id="SvgjsSvg1001" width="288" height="288" xmlns="http://www.w3.org/2000/svg" version="1.1" xmlns:xlink="http://www.w3.org/1999/xlink" xmlns:svgjs="http://svgjs.com/svgjs"><defs id="SvgjsDefs1002"></defs><g id="SvgjsG1008" transform="matrix(1,0,0,1,0,0)"><svg xmlns="http://www.w3.org/2000/svg" enable-background="new 0 0 80.441 80.587" viewBox="0 0 80.441 80.587" width="288" height="288"><path fill-rule="evenodd" d="M53.151,38.529c-3.286,0.073-5.757-1.079-7.668-2.814		c-1.709-1.553-3.524-3.887-3.688-6.94c-0.168-3.123-0.168-6.997-0.049-10.434c0.083-2.396,0-5.047,0-7.716
		c0-0.97,0.066-1.927-0.145-2.476c-0.424-1.1-1.993-1.361-2.572-0.194c-0.455,0.918-0.194,3.115-0.194,4.465c0,3.98,0,7.621,0,11.55
		c0,0.715,0.165,1.511-0.292,2.039c-1.682,0.194-3.201-0.608-4.465-1.311c-3.692-2.053-6.605-5.672-6.891-11.017
		c-0.223-4.17,1.4-7.097,3.397-9.318c2.167-2.123,4.72-4.018,8.59-4.319c4.608-0.359,7.331,1.541,9.658,3.688
		c2.27,2.095,4.055,4.923,4.368,8.93c0.16,2.044,0.172,4.291,0.097,6.455c-0.19,5.496,0,11.826,0,17.908
		C53.297,37.525,53.404,38.064,53.151,38.529z" clip-rule="evenodd" fill="#fc4c02" class="svgShape color000000-0 selectable"></path><path fill-rule="evenodd" d="M42.183 53.283c-.195-3.36 1.174-5.804 2.815-7.62 1.553-1.719 3.814-3.567 6.794-3.786 1.671-.123 3.435-.048 5.193-.048 3.569 0 6.741.048 10.434.048 2.479 0 5.755.591 6.164-1.456-.076-2.005-3.197-1.456-5.436-1.456-3.188 0-5.974 0-9.124 0-1.194 0-3.879.269-4.319-.292-.418-.531.047-1.879.243-2.475.746-2.275 2.034-4.046 3.543-5.484 2.133-2.002 4.773-3.416 8.59-3.64 2.427-.142 4.359.532 6.018 1.31 2.701 1.266 4.304 3.128 5.678 5.63.488.888.945 1.855 1.213 2.766 1 3.395.226 7.464-1.213 9.852-.429.712-1.122 1.645-1.699 2.281-1.285 1.418-2.846 2.557-4.61 3.349-1.963.882-4.216 1.165-6.843 1.165-6.672.001-13.228.048-19.655.048-.649 0-1.28-.02-1.941-.048C43.423 53.402 42.751 53.561 42.183 53.283zM38.252 27.416c.125 2.083-.371 3.732-1.019 5.242-.587 1.367-1.506 2.335-2.524 3.3-.938.891-2.237 1.833-3.445 2.33-1.508.62-3.482.485-5.484.485-4.215 0-7.844.049-11.89.048-.905 0-1.968.018-2.96.049-1.871.059-3.678-.299-3.931 1.407-.029.692.39.937.728 1.262 1.431.332 2.968.194 4.514.194 3.151 0 6.113-.048 9.366-.048 1.212 0 3.924-.301 4.319.388.295.515-.044 1.546-.243 2.184-.597 1.92-1.751 3.722-2.814 4.95-1.631 1.885-3.785 3.23-6.358 3.98-3.068.894-6.563.261-8.784-.679-2.406-1.019-4.232-2.816-5.533-4.805-1.464-2.238-2.291-4.67-2.184-8.105.097-3.111 1.348-5.419 3.057-7.28 2.521-2.745 5.314-4.807 10.483-5.047 1.604-.075 3.527.023 5.29-.048 5.52-.224 11.452.049 17.132.048C36.725 27.27 37.531 27.162 38.252 27.416z" clip-rule="evenodd" fill="#fc4c02" class="svgShape color000000-1 selectable"></path><path fill-rule="evenodd" d="M42.183,54.545c1.904-0.204,3.495,0.705,4.805,1.456
		c3.802,2.179,7.07,6.339,6.649,12.521c-0.262,3.839-2.083,6.668-4.271,8.59c-2.198,1.93-5.271,3.729-9.367,3.445
		c-3.972-0.275-6.358-2.038-8.59-4.271c-2.257-2.257-3.593-5.02-3.786-9.076c-0.193-4.049-0.048-8.432-0.048-12.812
		c0-3.532-0.165-7.269-0.049-10.968c0.015-0.467-0.011-1.334,0.243-1.408c2.803-0.205,5.537,1.183,7.086,2.475
		c0.807,0.673,1.627,1.476,2.281,2.476c0.592,0.906,1.267,2.034,1.553,3.203c0.376,1.536,0.242,3.485,0.242,5.436
		c0,4.809,0,9.25,0,14.22c0,1.91-0.207,3.406,1.456,3.689c1.705-0.057,1.456-2.174,1.456-3.737c0-4.402,0-8.568,0-13.006
		C41.843,55.987,41.665,55.097,42.183,54.545z" clip-rule="evenodd" fill="#fc4c02" class="svgShape color000000-2 selectable"></path></svg></g></svg>